<svg width="103" height="103" viewBox="0 0 103 103" fill="none" xmlns="http://www.w3.org/2000/svg">
<rect x="0.5" y="0.5" width="102" height="102" rx="51" fill="#E2DFCF"/>
<path d="M70.0292 46.1775C67.8487 58.7408 51.4894 69.2087 51.4894 69.2087C51.4894 69.2087 35.0096 58.7405 32.9496 46.1782C30.8896 33.6158 45.3095 29.4279 51.4894 39.1659C57.6695 29.4277 72.2097 33.6141 70.0292 46.1775Z" fill="#E2DFCF" fill-opacity="0.18"/>
<path d="M32.7509 56.7114H37.033C37.4357 56.7114 37.6371 56.7114 37.8158 56.6399C37.8747 56.6164 37.9312 56.5873 37.9846 56.5531C38.1465 56.4492 38.2636 56.2853 38.4977 55.9576L41.8318 51.2898C42.3746 50.5299 42.646 50.15 43.0157 50.0652C43.1338 50.0381 43.2559 50.0327 43.3759 50.0492C43.7516 50.1011 44.0555 50.4556 44.6632 51.1646L47.8713 54.9073C48.4972 55.6376 48.8102 56.0027 49.1939 56.0506C49.3163 56.0659 49.4405 56.0584 49.5602 56.0285C49.9353 55.9348 50.2021 55.5346 50.7356 54.7343L56.1514 46.6106C56.7839 45.6619 57.1002 45.1875 57.5226 45.1139C57.6561 45.0906 57.7929 45.0947 57.9248 45.1259C58.3421 45.2247 58.6293 45.7172 59.2039 46.7021L64.5217 55.8183C64.7471 56.2048 64.8598 56.398 65.0314 56.5219C65.0878 56.5627 65.1483 56.5974 65.2119 56.6256C65.4054 56.7114 65.6291 56.7114 66.0765 56.7114H70.2509M70.0292 46.1775C67.8487 58.7408 51.4894 69.2087 51.4894 69.2087C51.4894 69.2087 35.0096 58.7405 32.9496 46.1782C30.8896 33.6158 45.3095 29.4279 51.4894 39.1659C57.6695 29.4277 72.2097 33.6141 70.0292 46.1775Z" stroke="#503217" stroke-width="2.5" stroke-linecap="round" stroke-linejoin="round"/>
</svg>
