<svg width="103" height="103" viewBox="0 0 103 103" fill="none" xmlns="http://www.w3.org/2000/svg">
<rect x="0.5" y="0.5" width="102" height="102" rx="51" fill="#E2DFCF"/>
<path d="M46.291 51.5H51.4993H56.7077V65.0417C56.7077 67.9181 54.3758 70.25 51.4993 70.25C48.6229 70.25 46.291 67.9181 46.291 65.0417V51.5Z" fill="#E2DFCF" fill-opacity="0.18"/>
<path d="M46.2923 51.5H56.709M46.2923 51.5V65.0417C46.2923 67.9181 48.6242 70.25 51.5007 70.25V70.25C54.3771 70.25 56.709 67.9181 56.709 65.0417V51.5M46.2923 51.5V39.0208M56.709 51.5V39.0208M47.334 39H55.6673C57.3932 39 58.7923 37.6009 58.7923 35.875V35.875C58.7923 34.1491 57.3932 32.75 55.6673 32.75H47.334C45.6081 32.75 44.209 34.1491 44.209 35.875V35.875C44.209 37.6009 45.6081 39 47.334 39Z" stroke="#503217" stroke-width="2.5" stroke-linejoin="round"/>
</svg>
