<svg width="103" height="103" viewBox="0 0 103 103" fill="none" xmlns="http://www.w3.org/2000/svg">
<rect x="0.5" y="0.5" width="102" height="102" rx="51" fill="#E2DFCF"/>
<path d="M32.75 51.5C32.75 44.5964 38.3464 39 45.25 39H51.5H57.75C64.6536 39 70.25 44.5964 70.25 51.5C70.25 58.4036 64.6536 64 57.75 64H51.5H45.25C38.3464 64 32.75 58.4036 32.75 51.5Z" fill="#E2DFCF" fill-opacity="0.18"/>
<path d="M51.5 39H45.25C38.3464 39 32.75 44.5964 32.75 51.5C32.75 58.4036 38.3464 64 45.25 64H51.5M51.5 39H57.75C64.6536 39 70.25 44.5964 70.25 51.5C70.25 58.4036 64.6536 64 57.75 64H51.5M51.5 39V64" stroke="#503217" stroke-width="2.5" stroke-linejoin="round"/>
</svg>
