<svg width="103" height="103" viewBox="0 0 103 103" fill="none" xmlns="http://www.w3.org/2000/svg">
<rect x="0.5" y="0.5" width="102" height="102" rx="51" fill="#E2DFCF"/>
<path d="M65.75 43.167H37.25C35.3751 43.167 34.4377 43.167 33.7805 43.6444C33.5683 43.7986 33.3817 43.9853 33.2275 44.1975C32.75 44.8547 32.75 45.7921 32.75 47.667V65.7503C32.75 67.6252 32.75 68.5626 33.2275 69.2198C33.3817 69.432 33.5683 69.6187 33.7805 69.7729C34.4377 70.2503 35.3751 70.2503 37.25 70.2503H65.75C67.6249 70.2503 68.5623 70.2503 69.2195 69.7729C69.4317 69.6187 69.6183 69.432 69.7725 69.2198C70.25 68.5626 70.25 67.6252 70.25 65.7503V47.667C70.25 45.7921 70.25 44.8547 69.7725 44.1975C69.6183 43.9853 69.4317 43.7986 69.2195 43.6444C68.5623 43.167 67.6249 43.167 65.75 43.167Z" fill="#E2DFCF" fill-opacity="0.18"/>
<path d="M59.8333 43.1667V39.95C59.8333 36.9502 59.8333 35.4503 59.0694 34.3989C58.8227 34.0593 58.5241 33.7607 58.1845 33.5139C57.133 32.75 55.6331 32.75 52.6333 32.75H50.3667C47.3669 32.75 45.867 32.75 44.8155 33.5139C44.4759 33.7607 44.1773 34.0593 43.9306 34.3989C43.1667 35.4503 43.1667 36.9502 43.1667 39.95V43.1667M57.75 56.7083H51.4993M51.4993 56.7083H45.25M51.4993 56.7083L51.5 62.9583M51.4993 56.7083L51.5 50.4583M37.25 70.25H65.75C67.6249 70.25 68.5623 70.25 69.2195 69.7725C69.4317 69.6183 69.6183 69.4317 69.7725 69.2195C70.25 68.5623 70.25 67.6249 70.25 65.75V47.6667C70.25 45.7918 70.25 44.8544 69.7725 44.1972C69.6183 43.985 69.4317 43.7983 69.2195 43.6441C68.5623 43.1667 67.6249 43.1667 65.75 43.1667H37.25C35.3751 43.1667 34.4377 43.1667 33.7805 43.6441C33.5683 43.7983 33.3817 43.985 33.2275 44.1972C32.75 44.8544 32.75 45.7918 32.75 47.6667V65.75C32.75 67.6249 32.75 68.5623 33.2275 69.2195C33.3817 69.4317 33.5683 69.6183 33.7805 69.7725C34.4377 70.25 35.3751 70.25 37.25 70.25Z" stroke="#503217" stroke-width="2.5" stroke-linecap="round" stroke-linejoin="round"/>
</svg>
